#tb 0: 66099/1000000
#media_type 0: video
#codec_id 0: rawvideo
#dimensions 0: 176x144
#sar 0: 0/1
0,          0,          0,        1,    28512, 0x7165286d
0,          1,          1,        1,    28512, 0x2b842acc
0,          2,          2,        1,    28512, 0x6d1b8e85
0,          3,          3,        1,    28512, 0xc5042fab
0,          4,          4,        1,    28512, 0x8b84fa8d
0,          5,          5,        1,    28512, 0x2ba34ee5
0,          6,          6,        1,    28512, 0x48493c3a
0,          7,          7,        1,    28512, 0xbd774ff0
0,          8,          8,        1,    28512, 0xf2e2edcd
0,          9,          9,        1,    28512, 0x9364c39e
0,         10,         10,        1,    28512, 0x7203d4d0
0,         11,         11,        1,    28512, 0x3771e23e
0,         12,         12,        1,    28512, 0xf332b71e
0,         13,         13,        1,    28512, 0x64d9aedb
0,         14,         14,        1,    28512, 0xc8f9cdbe
0,         15,         15,        1,    28512, 0xf077a6e8
0,         16,         16,        1,    28512, 0xa9958897
0,         17,         17,        1,    28512, 0x89fb6c6e
0,         18,         18,        1,    28512, 0x05b7350c
0,         19,         19,        1,    28512, 0x23cf3ec8
0,         20,         20,        1,    28512, 0xf9105aa6
0,         21,         21,        1,    28512, 0x37ed48cb
0,         22,         22,        1,    28512, 0xf4b15ce3
0,         23,         23,        1,    28512, 0x64b994b8
0,         24,         24,        1,    28512, 0x6731c26b
0,         25,         25,        1,    28512, 0x650d110b
0,         26,         26,        1,    28512, 0xbbb248ca
0,         27,         27,        1,    28512, 0x426ab4ab
0,         28,         28,        1,    28512, 0xb7f2e361
0,         29,         29,        1,    28512, 0xced16599
0,         30,         30,        1,    28512, 0xebf11860
0,         31,         31,        1,    28512, 0xefe1df5f
0,         32,         32,        1,    28512, 0x2afc432e
0,         33,         33,        1,    28512, 0x07bd3eea
0,         34,         34,        1,    28512, 0x8b133899
0,         35,         35,        1,    28512, 0x0830f148
0,         36,         36,        1,    28512, 0x871fc549
0,         37,         37,        1,    28512, 0x0082c863
0,         38,         38,        1,    28512, 0x6144bdce
0,         39,         39,        1,    28512, 0x0af772ea
0,         40,         40,        1,    28512, 0x982b8707
0,         41,         41,        1,    28512, 0x565a3bfe
0,         42,         42,        1,    28512, 0xdf14192e
0,         43,         43,        1,    28512, 0x0c5ffcc1
0,         44,         44,        1,    28512, 0x87532564
0,         45,         45,        1,    28512, 0x0ba1661b
0,         46,         46,        1,    28512, 0xd0e7a750
0,         47,         47,        1,    28512, 0x5add4281
0,         48,         48,        1,    28512, 0x9f45c597
0,         49,         49,        1,    28512, 0x921736d0
0,         50,         50,        1,    28512, 0xab177a89
0,         51,         51,        1,    28512, 0xb83a6f7c
0,         52,         52,        1,    28512, 0x9bf6716b
0,         53,         53,        1,    28512, 0xc8ca0f4f
0,         54,         54,        1,    28512, 0x2ca6c753
0,         55,         55,        1,    28512, 0xc2f67d1f
0,         56,         56,        1,    28512, 0x9b0e1d7b
0,         57,         57,        1,    28512, 0x5257c5d0
0,         58,         58,        1,    28512, 0xf256bd2f
0,         59,         59,        1,    28512, 0x1b04bd04
0,         60,         60,        1,    28512, 0x83deb9e4
0,         61,         61,        1,    28512, 0x5f3aa6b4
0,         62,         62,        1,    28512, 0x9313c5f3
0,         63,         63,        1,    28512, 0x1cfe0c23
0,         64,         64,        1,    28512, 0x3e9b37bf
0,         65,         65,        1,    28512, 0x1603b386
0,         66,         66,        1,    28512, 0x3e70da87
0,         67,         67,        1,    28512, 0xa6684712
0,         68,         68,        1,    28512, 0x0454bbb7
0,         69,         69,        1,    28512, 0x7cf2f717
0,         70,         70,        1,    28512, 0xdfbd424c
0,         71,         71,        1,    28512, 0x7318a177
0,         72,         72,        1,    28512, 0xbffcd503
0,         73,         73,        1,    28512, 0x85db177d
0,         74,         74,        1,    28512, 0x2a8269d1
0,         75,         75,        1,    28512, 0xb5455cd5
0,         76,         76,        1,    28512, 0x5fd79a35
0,         77,         77,        1,    28512, 0xc1a7c005
0,         78,         78,        1,    28512, 0x55230bb0
0,         79,         79,        1,    28512, 0x5acf45d9
0,         80,         80,        1,    28512, 0xdf1259bf
0,         81,         81,        1,    28512, 0xe04e87eb
0,         82,         82,        1,    28512, 0xfd25abc0
0,         83,         83,        1,    28512, 0x38c4d017
0,         84,         84,        1,    28512, 0x7b15d521
0,         85,         85,        1,    28512, 0xb156b981
0,         86,         86,        1,    28512, 0xcc99cd09
0,         87,         87,        1,    28512, 0x633a9cec
0,         88,         88,        1,    28512, 0xf00a7c1b
0,         89,         89,        1,    28512, 0x426250e9
0,         90,         90,        1,    28512, 0xfad02714
0,         91,         91,        1,    28512, 0x1ea5d8d2
0,         92,         92,        1,    28512, 0x581ea622
0,         93,         93,        1,    28512, 0x6b225f61
0,         94,         94,        1,    28512, 0x68f337e6
0,         95,         95,        1,    28512, 0x85f7060e
0,         96,         96,        1,    28512, 0xaa3b1086
0,         97,         97,        1,    28512, 0x91fa1371
0,         98,         98,        1,    28512, 0x92acd34a
0,         99,         99,        1,    28512, 0x0ae8c1e6
0,        100,        100,        1,    28512, 0x1335a5b3
0,        101,        101,        1,    28512, 0xc364a5e7
0,        102,        102,        1,    28512, 0x19b9819a
0,        103,        103,        1,    28512, 0xd42d7045
0,        104,        104,        1,    28512, 0x4c866a18
0,        105,        105,        1,    28512, 0xf0a99685
0,        106,        106,        1,    28512, 0x47a4a1bd
0,        107,        107,        1,    28512, 0x8dd09006
0,        108,        108,        1,    28512, 0x3f0b742d
0,        109,        109,        1,    28512, 0x1acf52be
0,        110,        110,        1,    28512, 0x9e5d1460
0,        111,        111,        1,    28512, 0xd6852de9
0,        112,        112,        1,    28512, 0x36e00f16
0,        113,        113,        1,    28512, 0xe83dea09
0,        114,        114,        1,    28512, 0xbb71daf1
0,        115,        115,        1,    28512, 0xaeedf763
0,        116,        116,        1,    28512, 0xa793ed91
0,        117,        117,        1,    28512, 0x9b0f093f
0,        118,        118,        1,    28512, 0xc8504b43
0,        119,        119,        1,    28512, 0x08c68319
0,        120,        120,        1,    28512, 0x2284b24a
0,        121,        121,        1,    28512, 0x5980e906
0,        122,        122,        1,    28512, 0x6ffd2c14
0,        123,        123,        1,    28512, 0x5c6c3c27
0,        124,        124,        1,    28512, 0x20d2efec
0,        125,        125,        1,    28512, 0x69ffec11
0,        126,        126,        1,    28512, 0x8721f8ab
0,        127,        127,        1,    28512, 0xb606e164
